<?xml version="1.0" encoding="utf-8"?>
<!-- Generator: Adobe Illustrator 17.0.1, SVG Export Plug-In . SVG Version: 6.00 Build 0)  -->
<!DOCTYPE svg PUBLIC "-//W3C//DTD SVG 1.1//EN" "http://www.w3.org/Graphics/SVG/1.1/DTD/svg11.dtd">
<svg version="1.1" id="Layer_1" xmlns="http://www.w3.org/2000/svg" xmlns:xlink="http://www.w3.org/1999/xlink" x="0px" y="0px"
	 width="168px" height="67px" viewBox="0 0 168 67" enable-background="new 0 0 168 67" xml:space="preserve">
<g>
	<path fill="#575757" d="M16.074,29.15h-1.653l-3.42-10.629h-0.057L7.524,29.15H5.9L0,13.363h3.164l3.505,10.259h0.057l3.278-10.259
		h1.938l3.277,10.259h0.057l3.477-10.259h3.164L16.074,29.15z"/>
	<path fill="#575757" d="M29.327,29.549c-5.301,0-8.522-4.417-8.522-8.406c0-4.303,3.62-8.207,8.522-8.207
		c4.788,0,8.522,3.762,8.522,8.264C37.849,25.047,34.685,29.549,29.327,29.549z M29.327,15.643c-3.335,0-5.558,2.764-5.558,5.585
		c0,2.85,2.252,5.614,5.558,5.614c3.192,0,5.558-2.65,5.558-5.642C34.885,18.407,32.662,15.643,29.327,15.643z"/>
	<path fill="#575757" d="M47.425,29.549c-5.301,0-8.522-4.417-8.522-8.406c0-4.303,3.62-8.207,8.522-8.207
		c4.788,0,8.522,3.762,8.522,8.264C55.946,25.047,52.783,29.549,47.425,29.549z M47.425,15.643c-3.335,0-5.558,2.764-5.558,5.585
		c0,2.85,2.252,5.614,5.558,5.614c3.192,0,5.558-2.65,5.558-5.642C52.982,18.407,50.759,15.643,47.425,15.643z"/>
	<path fill="#575757" d="M70.852,29.15v-2.251h-0.057c-1.254,1.738-3.278,2.65-5.586,2.65c-5.244,0-8.208-4.075-8.208-8.235
		c0-3.847,2.622-8.378,8.208-8.378c2.194,0,4.218,0.912,5.358,2.365h0.057V8.063h2.964V29.15H70.852z M65.38,15.643
		c-3.648,0-5.415,3.163-5.415,5.642c0,2.85,2.252,5.557,5.386,5.557c3.107,0,5.501-2.536,5.501-5.557
		C70.852,17.923,68.429,15.643,65.38,15.643z"/>
	<path fill="#575757" d="M96.046,29.15v-2.251h-0.057c-1.254,1.738-3.278,2.65-5.586,2.65c-5.244,0-8.208-4.075-8.208-8.235
		c0-3.847,2.622-8.378,8.208-8.378c2.195,0,4.218,0.912,5.358,2.365h0.057V8.063h2.964V29.15H96.046z M90.574,15.643
		c-3.648,0-5.415,3.163-5.415,5.642c0,2.85,2.251,5.557,5.386,5.557c3.107,0,5.501-2.536,5.501-5.557
		C96.046,17.923,93.624,15.643,90.574,15.643z"/>
	<path fill="#575757" d="M105.513,26.185c2.68,1.632,5.3,0.786,6.711-0.625c1.552-1.552,1.773-3.587,1.31-5.058l2.096-2.096
		c1.814,3.949,0.161,7.415-1.572,9.148c-3.164,3.164-8.404,2.962-11.568-0.202c-3.345-3.345-3.285-8.443-0.141-11.586
		c3.023-3.023,8.122-3.204,11.406,0.04c0.363,0.363,0.887,0.967,1.008,1.128L105.513,26.185z M111.115,17.36
		c-1.733-1.532-4.857-1.673-6.872,0.343c-2.015,2.015-1.874,5.138-0.343,6.871L111.115,17.36z"/>
	<path fill="#575757" d="M124.805,17.552c-0.171-1.282-0.94-1.909-2.024-1.909c-1.083,0-1.852,0.684-1.852,1.681
		c0,1.311,1.14,1.653,2.451,2.052c1.225,0.371,4.76,1.368,4.76,5.129c0,2.792-1.938,5.044-5.301,5.044
		c-1.995,0-5.586-1.254-5.586-5.585h2.964c0.114,1.767,1.026,2.878,2.679,2.878c1.339,0,2.28-0.826,2.28-2.166
		c0-1.396-1.226-1.881-2.765-2.422c-1.71-0.627-4.446-1.396-4.446-4.759c0-2.337,1.967-4.559,4.959-4.559
		c1.796,0,4.76,1.111,4.845,4.616C127.769,17.552,124.805,17.552,124.805,17.552z"/>
	<path fill="#575757" d="M132.5,11.54h-2.964V8.063h2.964V11.54z M132.5,29.15h-2.964V13.363h2.964V29.15z"/>
	<path fill="#575757" d="M151.254,27.013c0,5.186-3.164,8.35-8.55,8.35c-3.676,0-6.47-1.995-7.78-4.987h3.306
		c0.456,0.627,1.681,2.28,4.503,2.28c3.135-0.028,5.557-1.482,5.557-5.585h-0.057c-0.541,0.741-2.109,2.479-5.443,2.479
		c-5.216,0-8.436-4.502-8.436-8.349c0-3.505,2.765-8.264,8.493-8.264c2.337,0,4.389,1.054,5.443,2.251v-1.824h2.964V27.013z
		 M142.789,15.643c-3.135,0-5.472,2.622-5.472,5.614c0,2.85,2.28,5.585,5.443,5.585c3.876,0,5.529-3.533,5.529-5.557
		C148.29,16.84,144.613,15.643,142.789,15.643z"/>
	<path fill="#575757" d="M164.364,29.15v-8.577c0-1.225,0-4.93-3.933-4.93c-2.48,0-4.161,1.738-4.161,4.901v8.606h-2.964V13.363
		h2.765v1.681h0.057c1.596-2.109,3.99-2.109,4.617-2.109c2.451,0,4.446,1.054,5.586,2.821c0.627,1.026,0.969,2.28,0.998,4.047v9.347
		H164.364z"/>
</g>
<g>
	<path fill="#757575" d="M84.236,41.457c0.033,1.714,1.203,1.846,1.615,1.846c1.088,0,1.681-0.643,1.681-1.615
		c0-1.236-1.121-1.516-1.796-1.796c-0.923-0.313-2.39-0.808-2.39-2.505c0-1.269,0.907-2.505,2.571-2.505
		c1.335,0,2.456,1.022,2.456,2.423v0.033h-1.154c-0.082-1.104-0.84-1.417-1.351-1.417c-0.923,0-1.368,0.742-1.368,1.351
		c0,0.956,0.956,1.285,1.615,1.5c1.055,0.346,2.571,0.923,2.571,2.785v0.033c0,1.532-0.94,2.752-2.835,2.752
		c-1.236,0-2.769-0.824-2.769-2.785v-0.099L84.236,41.457L84.236,41.457z"/>
	<path fill="#757575" d="M90.384,36.151h-1.895v-1.038h1.895v-3.18h1.154v3.18h2.159v1.038h-2.159v7.976h-1.154V36.151z"/>
	<path fill="#757575" d="M102.267,44.127h-1.088v-1.401h-0.033c-0.33,0.676-1.203,1.615-2.884,1.615
		c-1.78,0-2.703-0.857-3.099-1.351c-0.643-0.791-0.791-1.945-0.791-2.901v-4.977h1.154v4.96c0,1.137,0.247,1.879,0.643,2.373
		c0.626,0.709,1.467,0.857,2.093,0.857c0.643,0,1.335-0.148,1.912-0.725c0.527-0.527,0.939-1.12,0.939-2.703v-4.763h1.154
		C102.267,35.111,102.267,44.127,102.267,44.127z"/>
	<path fill="#757575" d="M112.734,44.127h-1.154v-1.582h-0.033c-0.956,1.434-2.555,1.796-3.511,1.796
		c-2.835,0-4.845-2.159-4.845-4.746c0-2.406,1.895-4.713,4.845-4.713c0.989,0,2.538,0.363,3.511,1.78h0.033v-4.73h1.154V44.127z
		 M108.037,43.303c1.945,0,3.61-1.566,3.61-3.675c0-1.977-1.533-3.708-3.61-3.708c-1.978,0-3.692,1.434-3.692,3.724
		C104.345,41.655,105.828,43.303,108.037,43.303z"/>
	<path fill="#757575" d="M114.416,31.932h1.154v2.076h-1.154V31.932z M114.416,35.112h1.154v9.014h-1.154V35.112z"/>
	<path fill="#757575" d="M121.867,34.882c2.67,0,4.73,2.258,4.73,4.73c0,2.455-2.027,4.73-4.73,4.73
		c-2.637,0-4.697-2.225-4.697-4.664C117.169,36.826,119.493,34.882,121.867,34.882z M121.883,43.303c1.747,0,3.56-1.384,3.56-3.741
		c0-2.373-2.011-3.642-3.56-3.642c-1.648,0-3.56,1.351-3.56,3.741C118.323,41.753,120.02,43.303,121.883,43.303z"/>
	<path fill="#757575" d="M128.328,41.457c0.033,1.714,1.203,1.846,1.615,1.846c1.088,0,1.681-0.643,1.681-1.615
		c0-1.236-1.121-1.516-1.797-1.796c-0.923-0.313-2.39-0.808-2.39-2.505c0-1.269,0.906-2.505,2.571-2.505
		c1.335,0,2.456,1.022,2.456,2.423v0.033h-1.154c-0.083-1.104-0.841-1.417-1.352-1.417c-0.923,0-1.368,0.742-1.368,1.351
		c0,0.956,0.956,1.285,1.615,1.5c1.055,0.346,2.571,0.923,2.571,2.785v0.033c0,1.532-0.939,2.752-2.835,2.752
		c-1.236,0-2.769-0.824-2.769-2.785v-0.099L128.328,41.457L128.328,41.457z"/>
</g>
</svg>
